<?xml version='1.0' encoding='utf-8'?>
<svg xmlns="http://www.w3.org/2000/svg" clip-rule="evenodd" fill-rule="evenodd" stroke-linejoin="round" stroke-miterlimit="2" version="1.1" viewBox="0 0 1920 2200"><g><path d="m678.4 1178.5c-649.62 105.26-666.95 378.05-491.15 578.83 83.677 95.57 223.5 167.36 336.62 210.94 220.23 84.83 891.86 115.71 1083.8-45.32 105.21-88.25 181.38-170.03 207.19-263.32 48.8-176.29-48.79-356.34-234.96-436.5-105.33-45.35-291.03-80.56-291.03-80.56-52.53-271.37-50.58-631.4 17-762.2 27.73-53.676 104.48-131.6 224.88-87.389 89.87 33.002 77.68 152.21 65.17 227.46-33.73 202.9-150.27 244.08-191.14 276.02-0.01 0.02-0.03 0.03-0.05 0.05-25.39 15.32-18.27 61.32 5.04 78.05 23.36 16.77 118.67 20.24 157.78-35.6 50.38-71.94 175.76-222.02 185.7-351.42 2.86-37.147 0.82-70.756-5.37-100.85-34.26-166.59-159.8-228.94-259.05-247.24-31.91-5.883-66.61-0.022-101.96 7.898-78.79 17.65-160.85 61.397-222.68 120.6-158.64 151.89-354.74 546.08-485.83 910.55z" fill="#2d2d2d"/><path d="m851.49 1602.2 28.4-133.27-19.56-4.17-28.4 133.27 19.56 4.17z" fill="#f7b80b"/><path d="m856.33 1579.5 20.19-94.72-19.56-4.17-20.19 94.72 19.56 4.17z" fill="#9e7400"/><path d="m615.22 1349.6-23.486 74.52c166.8 211.59 583.86 195.62 739.26 90.21l0.81-86.95c-136.32 121.5-549.18 121.02-716.59-77.78z" fill="#a65499"/><path d="m678.18 1161.9c-1.38 3.31-4.424 5.62-7.979 6.07-196.24 24.72-338.88 73.15-434.6 134.71-82.285 52.91-130.45 115.86-149.44 181.99-21.693 75.55-5.563 155.89 43.722 232.11 93.43 144.48 308.26 275.28 603.76 325.94 106.07 18.19 222.59 26.03 347.48 20.44 108.83-4.87 224.02-20.12 344.26-47.25 287.75-65.49 450.15-296.73 412.54-507.47-30.56-171.2-193.75-331.8-534.69-375.66-4.31-0.55-7.76-3.82-8.56-8.09-24.43-133.2-44.14-341.8-28.51-517.14 7.06-79.111 21.27-151.42 45.66-206.75 21.47-48.694 50.69-84.129 90.35-98.359 57.97-20.79 101.88-18.247 133.36 0.648 36.67 22.011 56.01 65.715 61.51 117.85 13.65 129.36-57.93 310.9-177.96 359.12-16.33 6.551-31.58 23.229-35.71 43.083-3.45 16.625 0.63 35.529 18.51 52.457 13.2 12.505 47.21 17.959 81.59 13.597 29.45-3.736 58.97-14.435 75.46-32.392 39.56-42.997 133.05-153.46 177.98-280.77 25.14-71.251 35.1-147.75 12.35-220.83-11.27-36.305-38.99-77.979-72.72-114.58-33.25-36.087-72.32-67.228-106.91-83.583-35.69-16.892-77.22-23.172-119.58-21.833-40.49 1.28-81.72 9.519-119.23 21.964-92.68 30.705-181.27 99.734-265.83 211.72-82.347 109.05-160.99 259-235.93 454.1-2.355 4.988-36.907 78.244-79.957 174.92-22.448 50.413-47.206 107.19-70.918 163.99zm631.79-4.87c-3.25-0.48-6.52 0.66-8.77 3.06-2.24 2.4-3.16 5.75-2.46 8.95 0.54 2.52 1.09 4.99 1.63 7.42 16.23 72.27 32.59 164.37 37.18 245.21 3.93 69.32-1 130.44-21.46 164.34-17.72 29.35-54.71 51.21-103.47 65.61-76.14 22.5-181.15 27.17-283.81 16.21-104.29-11.14-206.13-38.43-272.88-79.2-42.792-26.13-71.236-57.94-77.754-94.33-1.754-9.81-0.431-25.07 3.588-44.52 8.284-40.1 27.858-98.78 52.682-164.37 9.576-25.31 19.932-51.64 30.706-78.32 1.345-3.33 0.804-7.12-1.419-9.94s-5.786-4.23-9.335-3.7c-181.15 27.15-313.53 74.43-402.94 133.54-74.155 49.03-118.14 105.98-134.69 166.27-18.409 67.06-2.329 137.7 41.903 204.71 90.767 137.52 298.4 258.43 581.58 305.78 103.59 17.32 217.25 24.8 339.14 19.64 106.71-4.52 219.74-18.52 337.77-44.46 267.57-58.27 422.6-269.21 389.81-465.14-26.99-161.27-180.33-309.51-496.99-356.76zm-714.6 278.06c-1.463 5.87-2.744 11.45-3.828 16.71-3.674 17.81-5.134 31.76-3.526 40.74 6.071 33.96 33.175 63.19 73.103 87.59 65.72 40.18 166.04 66.88 268.74 77.93 101.28 10.89 204.92 6.52 280.06-15.59 46.06-13.56 81.36-33.63 98.13-61.33 9.23-15.25 15.08-36.22 18.32-61.05-6.64 7.23-15.94 14.18-27.55 20.7-25.65 14.38-62.71 26.81-106.86 35.9-35.96 7.41-76.64 12.65-119.66 14.94-38.87 2.08-79.66 1.81-120.58-1.46-53.812-4.29-107.85-13.71-158.11-29.11-79.845-24.46-153.09-66.81-198.25-125.97zm28.097-71.63c-0.902-1.17-2.369-1.74-3.818-1.49-1.449 0.24-2.647 1.27-3.116 2.66-6.505 19.3-12.14 37.3-16.68 53.55-1.712 6.22-0.318 12.88 3.742 17.89 45.302 55.03 116.09 93.88 192.59 116.48 49.78 14.71 103.19 23.47 156.34 27.66 40.498 3.19 80.837 3.76 119.33 2.01 42.57-1.93 82.86-6.59 118.53-13.46 43.42-8.37 79.96-19.92 105.32-33.65 6.2-3.35 13.02-8.68 18.76-13.64 8.47-7.31 13.49-17.82 13.86-28.99 0.51-14.2 1.08-34.89 0.83-51.45-0.05-1.6-1.04-3.01-2.52-3.6s-3.17-0.25-4.3 0.88c-5.7 5.44-12.8 10.72-21.16 15.78-24.54 14.85-60.03 27.98-102.38 37.87-34.67 8.11-73.94 14.09-115.52 17.1-37.6 2.72-77.11 3.07-116.78 0.34-52.074-3.59-104.44-12.42-153.23-27.49-74.619-23.05-144.99-61.83-189.79-118.45zm704.93 58.51c-4.51-80.5-51.36-274.6-50.87-280.38-29.26-156.42-52.29-429.54-15.85-625.15 1.97-10.543 4.11-20.861 6.44-30.93 8.04-38.58 18.65-73.148 32.27-101.92 14.56-30.754 32.59-54.938 54.52-70.527 12.79-10.887 26.86-19.23 42.27-24.669 63.45-22.404 111.4-18.274 145.69 2.536 39.97 24.252 61.86 71.603 67.62 128.61 13.59 134.3-62.26 321.94-187.02 371.49-13.1 5.211-25.31 18.586-28.67 34.49-2.79 13.244 0.79 28.188 15.01 41.727 11.63 11.083 41.89 14.543 72.27 10.772 26.72-3.315 53.73-12.47 68.72-28.723 39.06-42.403 131.58-151.25 175.87-276.88 24.33-69.022 34.08-143.14 11.95-213.89-10.95-34.948-37.94-74.918-70.52-110.09-32.25-34.805-70.04-64.911-103.53-80.628-34.08-15.97-73.72-21.675-114.1-20.243-39.27 1.393-79.24 9.558-115.57 21.772-90.34 30.418-176.35 98.473-258.32 208.25-81.108 108.61-158.11 257.92-231.32 451.94-0.077 0.204-0.162 0.404-0.255 0.601-0-0-34.912 75.096-78.761 175.34-23.734 54.26-50.085 115.89-74.935 176.96-1.315 3.2-35.443 74.34-47.581 106.48-8.147 21.57-15.73 42.39-22.526 62.03 44.206 59.81 117.36 99.47 194.64 122.46 48.278 14.37 99.967 22.55 151.34 26.03 39.225 2.66 78.255 2.61 115.46 0.23 41.12-2.64 80-8.03 114.37-15.59 41.61-9.15 76.6-21.37 100.86-35.55 14.22-8.3 24.73-17.2 30.54-26.55z" fill="#141414"/><path d="m997.99 1478.5c1.84-8.556 0.437-17.009-3.47-23.711-3.886-6.671-10.119-11.704-17.876-13.359l-199.77-42.914c-7.247-1.568-14.524 0.179-20.417 4.368-5.871 4.167-10.41 10.69-12.141 18.614l-34.193 154.67c-1.754 7.744-0.468 15.4 3.004 21.531 3.476 6.138 9.165 10.718 16.221 12.323l199.06 46.057c7.382 1.72 14.822-0.079 20.898-4.267 6.099-4.203 10.769-10.913 12.661-19.052l36.019-154.26zm-56.425 14.38-21.946 103.3c-0.151 0.71-0.48 1.346-1.001 1.716-0.548 0.398-1.21 0.649-1.884 0.504l-152.75-32.896c-1.032-0.232-1.874-0.881-2.386-1.774-0.515-0.9-0.723-2.023-0.47-3.163l23.623-102.93c0.231-0.989 0.849-1.757 1.59-2.267 0.721-0.494 1.612-0.639 2.487-0.435l152 36.244c0.348 0.085 0.556 0.409 0.724 0.717 0.151 0.278 0.097 0.631 0.014 0.978z" fill="#0d0d0d"/><path d="m986.73 1475.3c2.397-10.664-3.541-21.09-13.248-23.271l-199.35-44.795c-9.708-2.181-19.534 4.703-21.93 15.366l-34.728 154.55c-2.396 10.664 3.541 21.09 13.249 23.271l199.35 44.795c9.708 2.181 19.535-4.703 21.931-15.366l34.727-154.55zm-35.103 19.17c1.597-7.109-2.361-14.059-8.833-15.514l-152.44-34.254c-6.472-1.455-13.023 3.134-14.62 10.244l-23.152 103.03c-1.597 7.109 2.36 14.059 8.832 15.514l152.44 34.254c6.471 1.455 13.023-3.134 14.62-10.244l23.152-103.03z" fill="#f7b80b"/><g fill="#f7b80b"><path d="m839.81 1169-18.806 40.905 33.512 31.281-45.137-5.999-18.801 40.911-9.089-44.618-45.132-5.993 39.515-21.576-9.083-44.612 33.506 31.276 39.515-21.575z"/><path d="m1107.6 1041.8-18.806 40.905 33.512 31.281-45.137-5.999-18.801 40.911-9.089-44.618-45.132-5.993 39.515-21.576-9.083-44.612 33.506 31.276 39.515-21.575z"/><path d="m887.18 866.79 17.658 41.413 45.686-3.801-34.772 29.399 17.667 41.413-39.152-23.248-34.764 29.398 10.572-43.763-39.144-23.248 45.677-3.801 10.572-43.762z"/><path d="m1166.7 759.7-18.806 40.905 33.512 31.281-45.137-5.999-18.801 40.911-9.089-44.618-45.132-5.993 39.515-21.576-9.083-44.612 33.506 31.276 39.515-21.575z"/><path d="m1107.6 514.99-18.806 40.905 33.512 31.281-45.137-5.999-18.801 40.911-9.089-44.618-45.132-5.993 39.515-21.576-9.083-44.612 33.506 31.276 39.515-21.575z"/><path d="m1257.8 300.18-18.806 40.905 33.512 31.281-45.137-5.999-18.801 40.911-9.089-44.618-45.132-5.993 39.515-21.576-9.083-44.612 33.506 31.276 39.515-21.575z"/><path d="m1225.8 1285.8-18.806 40.905 33.512 31.281-45.137-5.999-18.801 40.911-9.089-44.618-45.132-5.993 39.515-21.576-9.083-44.612 33.506 31.276 39.515-21.575z"/><path d="m1418.7 264.77-32.119-19.389-29.03 24.833 9.179-36.818-32.125-19.385 37.796-3.365 9.174-36.814 14.18 34.735 37.79-3.36-29.025 24.829 14.18 34.734z"/><path d="m1625.3 235.37-19.355 22.94 15.972 26.056-27.935-11.878-19.353 22.944 2.091-30.284-27.932-11.873 29.224-6.839 2.095-30.279 15.969 26.052 29.224-6.839z"/><path d="m1723.8 374.55-11.352 27.785 23.219 19.873-30.236-2.7-11.348 27.788-7.335-29.457-30.231-2.696 25.699-15.505-7.33-29.453 23.214 19.87 25.7-15.505z"/><path d="m1500.8 855.77-13.696-26.708-30.201 4.682 21.737-21.189-13.701-26.707 27.132 13.614 21.732-21.188-4.967 29.6 27.127 13.615-30.196 4.681-4.967 29.6z"/><path d="m1603 602.12 28.419 9.653 18.435-24.376-0.869 30.344 28.422 9.649-28.96 9.1-0.866 30.339-17.028-24.716-28.957 9.095 18.432-24.372-17.028-24.716z"/></g></g></svg>